<?xml version="1.0" encoding="UTF-8" standalone="no"?>
<!DOCTYPE svg PUBLIC "-//W3C//DTD SVG 1.1//EN" "http://www.w3.org/Graphics/SVG/1.1/DTD/svg11.dtd">
<svg width="100%" height="100%" viewBox="0 0 44 43" version="1.1" xmlns="http://www.w3.org/2000/svg" xmlns:xlink="http://www.w3.org/1999/xlink" xml:space="preserve" xmlns:serif="http://www.serif.com/" style="fill-rule:evenodd;clip-rule:evenodd;stroke-linejoin:round;stroke-miterlimit:2;">
    <g id="path16" transform="matrix(0.133333,0,0,-0.133333,-181.76,592.727)">
        <path d="M1526.08,4445.45C1436.14,4445.45 1363.2,4372.52 1363.2,4282.55C1363.2,4210.59 1409.87,4149.53 1474.6,4127.98C1482.75,4126.49 1485.72,4131.52 1485.72,4135.84C1485.72,4139.71 1485.58,4149.95 1485.5,4163.54C1440.19,4153.7 1430.63,4185.38 1430.63,4185.38C1423.22,4204.2 1412.54,4209.21 1412.54,4209.21C1397.75,4219.31 1413.66,4219.11 1413.66,4219.11C1430.01,4217.96 1438.61,4202.32 1438.61,4202.32C1453.14,4177.43 1476.74,4184.62 1486.02,4188.79C1487.5,4199.31 1491.71,4206.49 1496.36,4210.56C1460.19,4214.68 1422.16,4228.65 1422.16,4291.07C1422.16,4308.86 1428.51,4323.39 1438.93,4334.78C1437.25,4338.9 1431.66,4355.46 1440.53,4377.89C1440.53,4377.89 1454.2,4382.27 1485.32,4361.2C1498.31,4364.81 1512.25,4366.61 1526.1,4366.68C1539.94,4366.61 1553.87,4364.81 1566.88,4361.2C1597.98,4382.27 1611.63,4377.89 1611.63,4377.89C1620.52,4355.46 1614.93,4338.9 1613.26,4334.78C1623.7,4323.39 1630,4308.86 1630,4291.07C1630,4228.49 1591.91,4214.72 1555.63,4210.69C1561.47,4205.66 1566.68,4195.72 1566.68,4180.52C1566.68,4158.75 1566.48,4141.18 1566.48,4135.84C1566.48,4131.48 1569.42,4126.41 1577.68,4128C1642.36,4149.59 1688.99,4210.6 1688.99,4282.55C1688.99,4372.52 1616.05,4445.45 1526.08,4445.45" style="fill:rgb(27,24,23);"/>
    </g>
</svg>
